<?xml version="1.0" standalone="no"?>
<!DOCTYPE svg PUBLIC "-//W3C//DTD SVG 20010904//EN"
 "http://www.w3.org/TR/2001/REC-SVG-20010904/DTD/svg10.dtd">
<svg version="1.0" xmlns="http://www.w3.org/2000/svg"
 width="1000.000000pt" height="1000.000000pt" viewBox="0 0 1000.000000 1000.000000"
 preserveAspectRatio="xMidYMid meet">
<metadata>
Created by potrace 1.11, written by Peter Selinger 2001-2013
</metadata>
<g transform="translate(0.000000,1000.000000) scale(0.100000,-0.100000)"
fill="#000000" stroke="none">
<path d="M3105 9049 c-400 -66 -659 -356 -760 -849 -32 -154 -39 -241 -40
-455 0 -233 19 -472 49 -620 2 -11 7 -40 10 -65 9 -59 43 -223 67 -328 22 -97
23 -112 7 -112 -38 0 -480 -153 -596 -206 -29 -13 -55 -24 -57 -24 -3 0 -58
-25 -122 -56 -772 -370 -1130 -852 -1014 -1366 41 -182 154 -365 329 -536 282
-275 716 -506 1302 -692 91 -29 168 -55 172 -57 4 -2 3 -15 -2 -29 -18 -45
-82 -355 -94 -454 -3 -25 -8 -54 -10 -66 -2 -12 -7 -45 -11 -75 -4 -30 -9 -65
-10 -79 -20 -145 -27 -516 -12 -660 47 -481 236 -823 536 -975 67 -33 146 -63
191 -72 95 -18 140 -22 255 -19 269 7 560 111 904 323 97 60 189 121 201 133
3 3 41 32 85 64 70 52 209 162 241 191 6 6 44 40 85 76 41 37 99 90 129 118
30 28 57 51 60 51 3 0 22 -15 41 -32 135 -126 258 -234 383 -335 58 -47 231
-172 302 -218 305 -199 559 -309 829 -359 79 -14 296 -16 358 -2 15 3 38 8 52
10 37 7 126 41 193 75 290 146 488 507 529 961 14 158 7 569 -11 667 -2 10 -7
45 -10 78 -4 33 -9 71 -11 85 -3 14 -7 40 -10 58 -11 72 -17 101 -36 197 -12
55 -23 111 -25 125 -3 14 -10 43 -16 65 -6 22 -12 54 -15 70 l-4 31 138 42
c330 103 627 228 873 368 107 60 283 174 300 193 3 3 32 28 65 56 456 377 570
845 310 1274 -194 320 -597 606 -1175 834 -161 64 -470 167 -498 167 -17 0
-19 -15 36 255 76 368 97 555 97 860 0 169 -7 289 -19 350 -2 11 -7 41 -10 67
-11 78 -54 232 -90 323 -154 382 -459 593 -848 587 -43 -1 -90 -4 -105 -6 -16
-2 -48 -7 -73 -11 -87 -13 -206 -47 -320 -91 -106 -42 -301 -136 -360 -175
-14 -9 -79 -51 -145 -94 -163 -106 -445 -322 -526 -404 -45 -46 -193 -176
-199 -176 -4 0 -50 39 -101 86 -52 47 -114 104 -139 125 -25 21 -47 41 -50 44
-30 33 -325 256 -425 321 -336 220 -671 357 -919 375 -143 10 -163 10 -261 -7z
m307 -375 c287 -54 637 -248 1009 -559 138 -115 309 -275 309 -289 0 -6 -24
-36 -53 -66 -28 -31 -79 -87 -112 -125 -33 -39 -62 -72 -65 -75 -24 -21 -252
-310 -370 -467 -130 -175 -146 -193 -174 -194 -17 -1 -42 -2 -56 -4 -103 -10
-162 -17 -182 -20 -13 -3 -43 -7 -68 -9 -92 -10 -277 -37 -340 -50 -14 -3 -41
-8 -60 -10 -37 -5 -63 -10 -145 -26 -27 -6 -59 -12 -70 -14 -27 -5 -98 -19
-110 -22 -72 -17 -101 -22 -106 -16 -12 12 -64 255 -93 427 -14 81 -33 236
-43 340 -8 90 -8 407 0 475 3 25 9 70 12 100 4 30 9 58 11 61 2 3 5 19 8 36
11 58 56 182 88 242 61 113 140 192 232 234 42 19 46 21 106 35 55 14 188 12
272 -4z m3460 1 c89 -21 148 -54 224 -130 158 -157 227 -402 228 -805 0 -189
-6 -280 -33 -465 -6 -38 -13 -92 -16 -119 -4 -28 -8 -52 -10 -56 -2 -3 -6 -26
-10 -50 -9 -68 -66 -314 -74 -322 -3 -4 -34 -1 -67 7 -34 8 -73 16 -88 19 -14
3 -34 7 -44 10 -20 6 -286 53 -382 67 -36 5 -76 11 -90 14 -22 3 -47 6 -160
21 -14 2 -49 6 -79 10 -30 3 -62 7 -71 9 -9 2 -54 6 -101 10 -94 7 -91 5 -164
110 -22 32 -44 63 -50 69 -5 6 -44 56 -85 111 -104 139 -292 368 -413 504 -56
62 -106 120 -112 128 -8 11 6 29 61 81 461 435 894 704 1247 776 83 17 219 18
289 1z m-1725 -1280 c100 -116 230 -273 253 -306 13 -19 27 -36 30 -39 9 -9
80 -98 80 -102 0 -2 -229 -3 -510 -3 -280 0 -510 1 -510 3 0 4 255 321 295
367 88 102 125 144 162 184 23 25 43 51 43 56 0 11 74 -64 157 -160z m373
-830 c69 -4 139 -8 155 -10 17 -2 51 -3 78 -4 l47 -1 88 -133 c165 -251 256
-399 409 -672 106 -189 303 -570 303 -588 0 -17 -162 -336 -268 -527 -218
-395 -514 -861 -550 -867 -75 -11 -530 -27 -787 -26 -251 0 -636 13 -777 26
-20 2 -56 53 -215 302 -278 439 -613 1058 -597 1107 9 29 194 392 244 478 21
36 54 97 75 135 67 123 245 415 362 593 112 170 114 172 151 173 20 1 53 3 72
5 19 1 116 6 215 9 99 4 181 8 183 10 5 5 697 -3 812 -10z m-1868 -174 c-135
-218 -271 -454 -407 -706 -21 -38 -40 -74 -42 -78 -7 -12 -28 38 -111 255 -68
177 -172 473 -172 488 0 4 17 12 38 18 35 10 261 56 327 66 17 3 71 12 120 20
50 8 110 18 135 21 71 10 115 17 117 19 1 0 15 2 31 2 l30 2 -66 -107z m2873
73 c181 -28 270 -43 435 -77 l115 -23 -3 -29 c-8 -69 -260 -742 -273 -728 -4
5 -20 33 -36 63 -78 144 -119 218 -140 255 -12 22 -32 58 -44 80 -30 55 -184
312 -248 413 l-52 83 43 -6 c24 -3 115 -17 203 -31z m-3813 -654 c53 -143 154
-390 215 -523 29 -65 53 -123 53 -128 0 -6 -31 -81 -68 -167 -38 -86 -97 -229
-132 -317 -34 -88 -66 -169 -71 -180 -15 -36 -77 -218 -115 -332 -24 -75 -41
-113 -51 -113 -16 0 -123 34 -288 90 -350 120 -663 277 -878 439 -515 388
-501 796 41 1185 187 134 397 240 742 376 53 21 346 116 375 122 18 3 27 -17
81 -177 34 -99 77 -223 96 -275z m4858 420 c109 -33 332 -111 385 -135 17 -7
59 -25 95 -40 95 -39 307 -147 397 -201 265 -161 439 -336 515 -517 36 -85 46
-209 24 -294 -93 -349 -582 -689 -1356 -942 -69 -22 -139 -43 -156 -47 l-32
-6 -27 88 c-49 154 -202 570 -250 679 -70 159 -145 335 -145 342 0 8 62 152
121 280 10 24 19 46 19 49 0 3 6 20 14 37 47 104 163 417 227 613 24 73 47
130 53 129 6 -2 58 -18 116 -35z m-4217 -1800 c44 -80 88 -157 98 -172 11 -14
19 -29 19 -32 0 -5 177 -300 230 -383 19 -29 13 -33 -40 -23 -25 4 -67 11 -95
14 -27 3 -61 8 -75 10 -14 3 -41 7 -60 10 -167 25 -498 91 -508 100 -5 5 86
281 131 396 14 36 39 101 56 145 38 101 74 186 85 203 6 10 19 -7 43 -55 20
-37 72 -133 116 -213z m3477 220 c12 -30 28 -68 35 -85 64 -152 221 -603 212
-611 -6 -6 -304 -68 -374 -77 -22 -4 -52 -8 -65 -11 -12 -3 -39 -8 -58 -11
-74 -11 -246 -36 -273 -40 l-28 -3 17 26 c101 152 377 628 454 783 32 63 50
92 55 87 2 -2 13 -28 25 -58z m-3789 -1104 c96 -20 192 -38 214 -41 22 -3 65
-10 95 -15 30 -5 73 -12 95 -15 22 -3 51 -8 65 -10 14 -3 48 -7 75 -10 28 -3
61 -8 75 -10 14 -2 52 -7 85 -10 33 -3 71 -8 85 -10 14 -3 56 -7 95 -11 38 -3
70 -6 70 -7 18 -39 404 -542 467 -608 7 -8 35 -41 63 -74 27 -33 52 -62 55
-65 3 -3 40 -44 82 -91 l77 -86 -86 -79 c-47 -44 -92 -84 -98 -91 -50 -49
-202 -173 -316 -258 -280 -209 -525 -340 -755 -401 -117 -31 -286 -38 -369
-15 -245 69 -390 305 -432 706 -14 134 -7 465 12 600 5 34 11 77 20 150 4 28
15 94 26 148 10 53 21 112 24 130 3 17 10 48 15 67 5 19 11 46 14 60 2 14 7
33 10 43 3 9 8 24 11 33 4 11 12 14 28 10 13 -3 102 -21 198 -40z m4163 -38
c21 -98 20 -92 40 -188 14 -69 28 -147 40 -225 3 -16 8 -57 12 -90 3 -33 8
-62 9 -65 9 -15 19 -222 19 -370 0 -175 -8 -270 -29 -380 -3 -14 -7 -34 -9
-46 -28 -144 -118 -318 -209 -400 -48 -43 -147 -102 -147 -88 0 4 -6 2 -12 -3
-36 -29 -200 -37 -318 -16 -215 37 -454 148 -730 338 -114 79 -260 192 -325
252 -11 10 -36 31 -55 47 -76 62 -220 200 -220 210 0 6 21 34 46 61 85 93 164
183 186 211 13 16 29 35 36 43 50 52 423 535 459 593 5 10 46 19 123 27 63 7
126 14 140 16 14 2 50 7 80 10 201 24 568 85 735 124 119 28 109 32 129 -61z
m-2118 -142 c221 1 407 4 413 8 31 19 0 -27 -107 -161 -109 -137 -294 -354
-363 -427 l-29 -31 -46 50 c-117 128 -317 367 -414 494 -14 18 -31 39 -38 47
-23 25 -6 29 90 24 51 -3 274 -5 494 -4z"/>
<path d="M4898 5935 c-1 -1 -19 -5 -39 -8 -95 -12 -235 -74 -333 -147 -103
-76 -210 -218 -257 -340 -86 -227 -61 -497 64 -695 41 -65 42 -67 107 -134
111 -116 240 -187 411 -227 13 -3 72 -7 130 -9 542 -15 933 514 761 1028 -41
120 -102 219 -191 307 -155 154 -333 227 -553 228 -53 0 -98 -1 -100 -3z"/>
</g>
</svg>
